<svg xmlns="http://www.w3.org/2000/svg" version="1.1" xmlns:xlink="http://www.w3.org/1999/xlink" xmlns:svgjs="http://svgjs.dev/svgjs" viewBox="0 0 1422 800"><g fill="hsl(265, 55%, 20%)"><path d="M532 308H582C610 308 632 330 632 358H582C554 358 532 336 532 308Z " transform="matrix(-0.37845377724601453,-0.01983392202674227,0.01983392202674227,-0.37845377724601453,795.6554023222752,470.56845044248684)" opacity="0.58"></path><path d="M1014 34H1064C1092 34 1114 56 1114 84H1064C1036 84 1014 62 1014 34Z " transform="matrix(0.20457255579108338,-0.5063348434082823,0.5063348434082823,0.20457255579108338,816.4610448771987,585.6704925947384)" opacity="0.84"></path><path d="M1193 501H1243C1271 501 1293 523 1293 551H1243C1215 551 1193 529 1193 501Z " transform="matrix(0.3771611907072577,-0.43387431821948774,0.43387431821948774,0.3771611907072577,545.9707485674281,866.9189912348057)" opacity="0.88"></path><path d="M116 337H166C194 337 216 359 216 387H166C138 387 116 365 116 337Z " transform="matrix(-0.1572359595783453,-0.4566463841692264,0.4566463841692264,-0.1572359595783453,26.795178220745328,494.7227171394526)" opacity="0.74"></path><path d="M1070 432H1120C1148 432 1170 454 1170 482H1120C1092 482 1070 460 1070 432Z " transform="matrix(0.05452044008246928,-0.5187273371492204,0.5187273371492204,0.05452044008246928,821.8787140304407,1013.0587764894384)" opacity="0.80"></path><path d="M741 684H791C819 684 841 706 841 734H791C763 734 741 712 741 684Z " transform="matrix(-0.38327176042164396,-0.11717793649756947,0.11717793649756947,-0.38327176042164396,1011.0888055167436,1073.4274259085232)" opacity="0.61"></path><path d="M970 612H1020C1048 612 1070 634 1070 662H1020C992 662 970 640 970 612Z " transform="matrix(-0.1420791090915406,-0.4647198260039588,0.4647198260039588,-0.1420791090915406,868.8941621088497,1201.5186150153495)" opacity="0.75"></path><path d="M6 729H56C84 729 106 751 106 779H56C28 779 6 757 6 729Z " transform="matrix(-0.3843026837829882,-0.11019702130949806,0.11019702130949806,-0.3843026837829882,-5.5676037755142005,1049.9352567657052)" opacity="0.61"></path><path d="M930 136H980C1008 136 1030 158 1030 186H980C952 186 930 164 930 136Z " transform="matrix(-0.07792952656030264,-0.49202766635801926,0.49202766635801926,-0.07792952656030264,977.1544817454555,655.7337668070677)" opacity="0.77"></path></g><g fill="none" stroke-width="3" stroke="hsl(265, 55%, 20%)"><path d="M131 216H181C209 216 231 238 231 266H181C153 266 131 244 131 216Z " transform="matrix(-0.09463837053734796,-0.486872209212798,0.486872209212798,-0.09463837053734796,80.79334264697566,351.9317171670173)" opacity="0.76"></path><path d="M1 121H51C79 121 101 143 101 171H51C23 171 1 149 1 121Z " transform="matrix(-0.3827231442013399,-0.1243542877552023,0.1243542877552023,-0.3827231442013399,52.3631543420088,208.21964772891096)" opacity="0.62"></path><path d="M359 443H409C437 443 459 465 459 493H409C381 493 359 471 359 443Z " transform="matrix(-0.23359135236363102,-0.4045920905025328,0.4045920905025328,-0.23359135236363102,315.1897647615397,742.7989179217152)" opacity="0.72"></path><path d="M258 628H308C336 628 358 650 358 678H308C280 678 258 656 258 628Z " transform="matrix(-0.05261066504490751,-0.5005570414162792,0.5005570414162792,-0.05261066504490751,-2.659663210998872,841.5263330305386)" opacity="0.77"></path><path d="M747 515H797C825 515 847 537 847 565H797C769 565 747 543 747 515Z " transform="matrix(-0.38327176042164396,-0.11717793649756947,0.11717793649756947,-0.38327176042164396,1039.1915073473626,840.3575660162505)" opacity="0.61"></path></g></svg>