<svg xmlns="http://www.w3.org/2000/svg" version="1.1" xmlns:xlink="http://www.w3.org/1999/xlink" xmlns:svgjs="http://svgjs.dev/svgjs" viewBox="0 0 2400 800"><defs><linearGradient x1="50%" y1="0%" x2="50%" y2="100%" id="sssurf-grad"><stop stop-color="hsl(208, 77%, 50%)" stop-opacity="1" offset="0%"></stop><stop stop-color="hsl(208, 74%, 93%)" stop-opacity="1" offset="100%"></stop></linearGradient></defs><g fill="url(#sssurf-grad)" transform="matrix(1,0,0,1,0,-166.03103637695312)"><path d="M 0 315.90870665874434 Q 600 636.1443985008074 800 308.0620763655817 Q 1400 506.7577767013241 1600 327.64360706493903 Q 2200 565.4603427420811 2400 332.0626086065446 L 2400 800 L 0 800 L 0 321.4120516075667 Z" transform="matrix(1,0,0,1,0,53)" opacity="0.05"></path><path d="M 0 315.90870665874434 Q 600 636.1443985008074 800 308.0620763655817 Q 1400 506.7577767013241 1600 327.64360706493903 Q 2200 565.4603427420811 2400 332.0626086065446 L 2400 800 L 0 800 L 0 321.4120516075667 Z" transform="matrix(1,0,0,1,0,106)" opacity="0.21"></path><path d="M 0 315.90870665874434 Q 600 636.1443985008074 800 308.0620763655817 Q 1400 506.7577767013241 1600 327.64360706493903 Q 2200 565.4603427420811 2400 332.0626086065446 L 2400 800 L 0 800 L 0 321.4120516075667 Z" transform="matrix(1,0,0,1,0,159)" opacity="0.37"></path><path d="M 0 315.90870665874434 Q 600 636.1443985008074 800 308.0620763655817 Q 1400 506.7577767013241 1600 327.64360706493903 Q 2200 565.4603427420811 2400 332.0626086065446 L 2400 800 L 0 800 L 0 321.4120516075667 Z" transform="matrix(1,0,0,1,0,212)" opacity="0.53"></path><path d="M 0 315.90870665874434 Q 600 636.1443985008074 800 308.0620763655817 Q 1400 506.7577767013241 1600 327.64360706493903 Q 2200 565.4603427420811 2400 332.0626086065446 L 2400 800 L 0 800 L 0 321.4120516075667 Z" transform="matrix(1,0,0,1,0,265)" opacity="0.68"></path><path d="M 0 315.90870665874434 Q 600 636.1443985008074 800 308.0620763655817 Q 1400 506.7577767013241 1600 327.64360706493903 Q 2200 565.4603427420811 2400 332.0626086065446 L 2400 800 L 0 800 L 0 321.4120516075667 Z" transform="matrix(1,0,0,1,0,318)" opacity="0.84"></path><path d="M 0 315.90870665874434 Q 600 636.1443985008074 800 308.0620763655817 Q 1400 506.7577767013241 1600 327.64360706493903 Q 2200 565.4603427420811 2400 332.0626086065446 L 2400 800 L 0 800 L 0 321.4120516075667 Z" transform="matrix(1,0,0,1,0,371)" opacity="1"></path></g></svg>