<svg viewBox="0 0 100 100" fill="none" xmlns="http://www.w3.org/2000/svg">
  <g opacity="0.9">
    <path d="M50 5L15 50L50 65L85 50L50 5Z" fill="currentColor" opacity="0.8"/>
    <path d="M50 75L15 50L50 65L85 50L50 75Z" fill="currentColor" opacity="0.6"/>
    <path d="M40 35L50 25L60 35V45L65 50V60L70 65V70H30V65L35 60V50L40 45V35Z" stroke="currentColor" stroke-width="1" opacity="0.8"/>
    <path d="M35 50Q50 45 65 50" stroke="currentColor" stroke-width="1" opacity="0.9"/>
    <path d="M30 65Q50 60 70 65" stroke="currentColor" stroke-width="1" opacity="0.9"/>
  </g>
  <g opacity="0.4">
    <path d="M10 80Q25 75 40 80Q55 85 70 80Q85 75 90 80" stroke="currentColor" stroke-width="1"/>
    <path d="M0 85Q15 80 30 85Q45 90 60 85Q75 80 100 85" stroke="currentColor" stroke-width="1"/>
  </g>
</svg>